<svg xmlns="http://www.w3.org/2000/svg" width="447" height="441" fill="none" viewBox="0 0 447 441"><g clip-path="url(#clip0_474_106)"><path fill="#FF686B" d="M102.798 228.316L61.5977 267.116C75.3977 281.116 106.598 308.516 106.598 308.516C106.598 308.516 172.198 365.916 200.598 406.716L224.398 440.916L247.398 406.116C274.798 364.916 341.598 305.516 341.598 305.516C341.598 305.516 369.998 280.316 382.798 267.516L340.798 229.516L223.198 343.716L102.798 228.516V228.316Z"/><path fill="#FF686B" d="M316.405 1.11884C301.005 1.11884 286.205 3.91882 272.205 8.91882C272.205 8.91882 271.805 8.91882 271.605 8.91882C270.805 9.31882 269.805 9.51873 269.005 9.91873C267.205 10.5187 265.605 11.3187 263.805 12.1187C262.805 12.5187 261.805 12.9187 261.005 13.5187C259.405 14.3187 257.805 15.1188 256.205 15.9188C255.405 16.3188 254.405 16.9188 253.605 17.3188C251.605 18.5188 249.405 19.7188 247.405 20.9188C247.005 21.1188 246.805 21.3188 246.405 21.5188C245.405 22.1188 244.605 22.7188 243.805 23.3188V95.5189L265.805 77.7189C267.805 75.7189 270.005 73.9187 272.405 72.1187C285.005 62.7187 300.405 57.3188 316.605 57.3188C357.405 57.3188 390.605 90.5187 390.605 131.319C390.605 157.919 382.005 179.119 367.405 199.119L409.405 237.319C431.805 208.319 447.005 174.919 447.005 131.319C447.005 59.3187 388.405 0.71875 316.405 0.71875V1.11884Z"/><path fill="#FF686B" d="M182.201 78.5195L203.801 95.9196V23.5195C203.801 23.5195 202.802 22.9196 202.402 22.5196C201.602 22.1196 201.002 21.5196 200.202 21.1196C198.202 19.9196 196.201 18.7196 194.001 17.5196C193.001 16.9196 191.802 16.3196 190.802 15.9196C189.402 15.1196 188.001 14.5196 186.601 13.9196C185.401 13.3196 184.201 12.7195 183.001 12.3195C181.601 11.7195 180.202 11.1195 179.002 10.7195C177.802 10.3195 176.602 9.71952 175.402 9.31952C175.202 9.31952 175.002 9.31963 174.802 9.11963C161.002 4.11963 146.402 1.51953 131.202 1.51953C59.2015 1.51953 0.601562 60.1195 0.601562 132.12C0.601562 175.72 14.6015 208.72 35.8015 237.32L77.4015 198.12C64.6015 179.12 57.2014 158.32 57.2014 132.12C57.2014 91.3195 90.4015 58.1196 131.202 58.1196C147.002 58.1196 162.202 63.3196 174.802 72.5196C177.202 74.1196 179.402 76.1195 181.402 77.9195C181.602 78.1195 181.801 78.3195 182.201 78.5195C182.201 78.5195 182.201 78.5195 182.401 78.7195L182.201 78.5195Z"/></g><defs><clipPath id="clip0_474_106"><rect width="446.403" height="440.198" fill="#fff" transform="translate(0.601562 0.71875)"/></clipPath></defs></svg>